# xmcd
#
# Track frame offsets:
#	150
#	13246
#	24694
#	40576
#	54804
#	68149
#	79091
#	92524
#	104454
#	117890
#	128663
#	142330
#	152942
#	170116
#	179551
#
# Disc length: 2596 seconds
#
# Revision: 0
# Processed by: cddbd v1.5PL3 Copyright (c) Steve Scherf et al.
# Submitted via: audiograbber 1.83.01
#
DISCID=cc0a220f
DTITLE=Kenny Rogers - Kenny Rogers Songs Of Love
DYEAR=2003
DGENRE=Country
TTITLE0=Ruby, Don't Take Your Love To Town
TTITLE1=Me and Bobby McGee
TTITLE2=I Found A Reason
TTITLE3=It's Raining In My Mind
TTITLE4=But You Know I Love You
TTITLE5=Always Leaving, Always Gone
TTITLE6=A Stranger In My Place
TTITLE7=What Am I Gonna Do?
TTITLE8=Shine On Ruby Mountain
TTITLE9=She Even Woke Me Up To Say Goodbye
TTITLE10=I'm Gonna Sing You A Sad Song Suzie
TTITLE11=The Last Few Threads Of Love
TTITLE12=Something's Burning
TTITLE13=Camptown Ladies
TTITLE14=For The Good Times
EXTD=
EXTT0=
EXTT1=
EXTT2=
EXTT3=
EXTT4=
EXTT5=
EXTT6=
EXTT7=
EXTT8=
EXTT9=
EXTT10=
EXTT11=
EXTT12=
EXTT13=
EXTT14=
PLAYORDER=
